<svg width="100" height="100" viewBox="0 0 100 100" fill="none" xmlns="http://www.w3.org/2000/svg">
<path fill-rule="evenodd" clip-rule="evenodd" d="M6.25 21.875C6.25 16.6973 10.4473 12.5 15.625 12.5H84.375C89.5527 12.5 93.75 16.6973 93.75 21.875V71.875C93.75 80.5044 86.7544 87.5 78.125 87.5H21.875C13.2456 87.5 6.25 80.5044 6.25 71.875V21.875ZM12.5 71.875V23.1694L39.3305 50.0001L13.4153 75.9153C13.4147 75.9158 13.4158 75.9147 13.4153 75.9153C12.8296 74.6914 12.5 73.3223 12.5 71.875ZM17.8331 80.3363C19.0569 80.922 20.4277 81.25 21.875 81.25H78.125C79.5723 81.25 80.9431 80.922 82.1669 80.3363C82.1675 80.3369 82.1664 80.3358 82.1669 80.3363L56.2394 54.4088C52.6907 57.5788 47.3093 57.5788 43.7606 54.4088L17.8331 80.3363C17.8325 80.3369 17.8336 80.3358 17.8331 80.3363ZM45.9767 47.8074L47.7903 49.621C49.0107 50.8414 50.9893 50.8414 52.2097 49.621L54.0222 47.8085C54.0282 47.8024 54.0342 47.7963 54.0403 47.7903C54.0463 47.7842 54.0524 47.7782 54.0585 47.7722L83.0806 18.7501L16.9194 18.75L45.9426 47.7733C45.9483 47.779 45.954 47.7846 45.9597 47.7903C45.9654 47.796 45.971 47.8017 45.9767 47.8074ZM60.6695 50.0001L86.5847 75.9153C86.5842 75.9147 86.5853 75.9158 86.5847 75.9153C87.1704 74.6914 87.5 73.3223 87.5 71.875V23.1696L60.6695 50.0001Z" fill="#222222"></path>
</svg>